Coordinates
version=1
nRows=11
nColumns=40
inDegrees=yes

Units are S.I. units (second, meters, Newtons, ...)
Angles are in degrees.

endheader
time	pelvis_tilt	pelvis_list	pelvis_rotation	pelvis_tx	pelvis_ty	pelvis_tz	hip_flexion_r	hip_adduction_r	hip_rotation_r	knee_angle_r	knee_angle_r_beta	ankle_angle_r	subtalar_angle_r	mtp_angle_r	hip_flexion_l	hip_adduction_l	hip_rotation_l	knee_angle_l	knee_angle_l_beta	ankle_angle_l	subtalar_angle_l	mtp_angle_l	lumbar_extension	lumbar_bending	lumbar_rotation	arm_flex_r	arm_add_r	arm_rot_r	elbow_flex_r	pro_sup_r	wrist_flex_r	wrist_dev_r	arm_flex_l	arm_add_l	arm_rot_l	elbow_flex_l	pro_sup_l	wrist_flex_l	wrist_dev_l
      1.88000000	     -7.93658272	      0.73938710	      0.46809727	      0.89651786	      1.02868748	     -0.51279186	     35.74954910	     -4.28312629	    -10.15239005	     13.77555460	     13.77555460	     -3.04559977	      0.00000000	      0.00000000	     -4.87423336	      4.72916202	     -1.64469135	      7.02521134	      7.02521134	      3.49961549	      0.00000000	      0.00000000	     -1.27932944	      2.96000517	     -2.30564069	    -15.67630105	     -9.00608826	    -20.87860760	     25.82469013	     18.81124577	      0.00000000	      0.00000000	     -3.76440069	    -10.83302548	      0.95592056	     54.57841438	     16.21827819	      0.00000000	      0.00000000
      1.89000000	     -8.14105398	      0.67496654	      0.46310836	      0.89671351	      1.02591824	     -0.51186692	     35.29373556	     -3.61547885	     -8.62490129	     10.09074424	     10.09074424	     -3.31396235	      0.00000000	      0.00000000	     -5.50300785	      4.56352565	     -1.69863971	      7.23702440	      7.23702440	      3.72102103	      0.00000000	      0.00000000	     -1.04060617	      2.98812736	     -2.41867270	    -15.99562305	     -8.93341889	    -21.19573854	     25.65663881	     18.86557937	      0.00000000	      0.00000000	     -3.57879762	    -10.85896573	      0.67139387	     55.44717569	     16.31103181	      0.00000000	      0.00000000
      1.90000000	     -7.63411110	      0.13586370	      0.58818983	      0.89740945	      1.02418921	     -0.51070325	     33.66606215	     -2.62557502	     -7.33456066	      6.23965955	      6.23965955	     -3.95817504	      0.00000000	      0.00000000	     -6.74950694	      3.82765628	     -1.76430313	      7.80751764	      7.80751764	      4.05884518	      0.00000000	      0.00000000	     -1.59631751	      3.53692956	     -2.58196600	    -16.20534517	     -8.90449498	    -21.32557272	     25.52753670	     18.90927554	      0.00000000	      0.00000000	     -3.20421810	    -10.82932219	      0.56342200	     55.93753131	     16.33000902	      0.00000000	      0.00000000
      1.91000000	     -7.38879346	     -0.13213180	      0.78234385	      0.89796776	      1.02199532	     -0.50964719	     32.68872703	     -2.09196777	     -6.19684731	      3.65333877	      3.65333877	     -4.37543794	      0.00000000	      0.00000000	     -7.54030486	      3.36238968	     -1.83921091	      8.68302356	      8.68302356	      4.31788036	      0.00000000	      0.00000000	     -1.84022483	      3.77649768	     -2.82835391	    -16.39936278	     -8.83750219	    -21.47948536	     25.35898017	     19.08395924	      0.00000000	      0.00000000	     -2.93263788	    -10.82814452	      0.38057026	     56.46874295	     16.36275373	      0.00000000	      0.00000000
      1.92000000	     -7.10674914	     -0.21122690	      0.95223091	      0.89874336	      1.01983197	     -0.50862945	     32.21695083	     -1.84877834	     -5.69114759	      2.78175037	      2.78175037	     -4.17930948	      0.00000000	      0.00000000	     -8.26154814	      3.08709443	     -1.97189560	      9.77850778	      9.77850778	      4.41591268	      0.00000000	      0.00000000	     -2.10604839	      3.79974409	     -3.04193325	    -16.56804727	     -8.75194672	    -21.59726044	     25.18919186	     19.22315127	      0.00000000	      0.00000000	     -2.73865080	    -10.84226300	      0.24041297	     57.09607047	     16.37666497	      0.00000000	      0.00000000
      1.93000000	     -6.87794109	     -0.52392630	      1.14558591	      0.90014135	      1.01776657	     -0.50773205	     31.81421400	     -1.41950202	     -5.80801066	      2.62755677	      2.62755677	     -3.92328948	      0.00000000	      0.00000000	     -8.89252801	      2.53522886	     -2.19722182	     10.94540283	     10.94540283	      4.36260767	      0.00000000	      0.00000000	     -2.20587984	      4.12129864	     -3.22566028	    -16.83818526	     -8.76342879	    -21.59272172	     25.11709841	     19.36479841	      0.00000000	      0.00000000	     -2.62877922	    -10.74858559	      0.18932053	     57.34699968	     16.38747164	      0.00000000	      0.00000000
      1.94000000	     -6.86774042	     -0.98797030	      1.37883487	      0.90166562	      1.01541820	     -0.50678845	     31.85824117	     -0.91859908	     -6.47103056	      3.52072403	      3.52072403	     -3.75600942	      0.00000000	      0.00000000	     -8.75116624	      1.73675534	     -2.55718621	     13.23651643	     13.23651643	      4.74352009	      0.00000000	      0.00000000	     -2.00563698	      4.59575096	     -3.42819776	    -17.16559202	     -8.80301566	    -21.64455514	     25.10776430	     19.84015872	      0.00000000	      0.00000000	     -2.62525032	    -10.60660628	      0.12837573	     57.56634967	     16.39014586	      0.00000000	      0.00000000
      1.95000000	     -6.40244540	     -1.48733359	      1.45261649	      0.90366464	      1.01396204	     -0.50550573	     31.55321970	     -0.32195400	     -7.09468641	      5.26299224	      5.26299224	     -3.48776223	      0.00000000	      0.00000000	     -9.42439785	      0.92136687	     -2.96889059	     14.83673159	     14.83673159	      4.37587123	      0.00000000	      0.00000000	     -2.32293137	      5.12077819	     -3.45233835	    -17.36741158	     -8.83587229	    -21.59803436	     25.06281651	     19.93867619	      0.00000000	      0.00000000	     -2.64785143	    -10.42464475	      0.11075533	     57.76104715	     16.37605044	      0.00000000	      0.00000000
      1.96000000	     -6.76295066	     -1.81475954	      1.61496912	      0.90503283	      1.01134723	     -0.50406187	     32.70241336	     -0.08571062	     -7.89413859	      8.39849787	      8.39849787	     -3.17308176	      0.00000000	      0.00000000	     -8.71886675	      0.21728532	     -3.27864161	     17.33549342	     17.33549342	      3.99808185	      0.00000000	      0.00000000	     -1.70223647	      5.39643634	     -3.61109914	    -17.60511280	     -8.84845608	    -21.60927459	     25.01780919	     20.11926792	      0.00000000	      0.00000000	     -2.82402290	    -10.37642605	      0.11137712	     57.85152081	     16.32950688	      0.00000000	      0.00000000
      1.97000000	     -6.29976176	     -2.30486215	      1.56496258	      0.90679622	      1.01041156	     -0.50210986	     32.32016033	      0.59309601	     -8.20747309	     10.20366689	     10.20366689	     -3.99303981	      0.00000000	      0.00000000	     -9.21495087	     -0.64296745	     -3.87241915	     19.13698400	     19.13698400	      2.83477205	      0.00000000	      0.00000000	     -2.07543301	      5.86878417	     -3.48482847	    -17.61092748	     -8.85679734	    -21.55012182	     24.84944921	     20.15562353	      0.00000000	      0.00000000	     -2.86528158	    -10.25763900	      0.04993191	     57.81193653	     16.32455462	      0.00000000	      0.00000000
      1.98000000	     -5.96840618	     -2.88458535	      1.60497384	      0.90850398	      1.00949772	     -0.50021633	     32.25506222	      1.27173967	     -8.61031054	     12.26119773	     12.26119773	     -4.96605607	      0.00000000	      0.00000000	     -9.29349366	     -1.65135240	     -4.32309444	     21.39800026	     21.39800026	      1.56050179	      0.00000000	      0.00000000	     -2.29601855	      6.43438167	     -3.43617814	    -17.59292551	     -8.85553487	    -21.51983437	     24.74488331	     20.17909615	      0.00000000	      0.00000000	     -2.96435682	    -10.12085988	      0.01508347	     57.70306581	     16.34396417	      0.00000000	      0.00000000
